<svg width="150" height="150" viewBox="0 0 150 150" fill="none" xmlns="http://www.w3.org/2000/svg">
<g clip-path="url(#clip0_8_33)">
<path d="M130.45 82.7393C130.862 80 131.149 77.225 131.149 74.375C131.149 71.525 130.862 68.75 130.45 66.0107L145.882 54.25C147.321 53.1536 147.711 51.1929 146.798 49.6536L131.59 24.0929C130.674 22.5536 128.732 21.9036 127.033 22.5643L108.856 29.6464C104.357 26.175 99.3317 23.3464 93.9019 21.2607L91.1318 2.43929C90.8743 0.682143 89.3218 -0.625 87.4935 -0.625H57.0887C55.2567 -0.625 53.7043 0.682143 53.4468 2.44286L50.6767 21.2643C45.2506 23.35 40.2217 26.1786 35.7226 29.65L17.5423 22.5643C15.8427 21.9036 13.904 22.5536 12.988 24.0929L-2.21618 49.6571C-3.13218 51.1964 -2.74224 53.1536 -1.30017 54.2536L14.1321 66.0143C13.7164 68.75 13.4295 71.525 13.4295 74.375C13.4295 77.225 13.7164 80 14.1284 82.7393L-1.30385 94.5C-2.74224 95.5964 -3.13218 97.5571 -2.21986 99.0964L12.9844 124.661C13.9004 126.2 15.8427 126.85 17.5423 126.189L35.719 119.107C40.2181 122.579 45.2432 125.407 50.673 127.493L53.4431 146.314C53.7043 148.068 55.2567 149.375 57.0851 149.375H87.4898C89.3218 149.375 90.8743 148.068 91.1318 146.307L93.9019 127.486C99.328 125.4 104.357 122.571 108.856 119.1L127.033 126.182C128.732 126.843 130.674 126.193 131.59 124.654L146.795 99.0893C147.711 97.55 147.321 95.5929 145.879 94.4929L130.45 82.7393Z" fill="#AA1B39"/>
<path d="M37.036 76.125L53.8956 83.325V93.5178L26.7907 80.3607V71.7571L53.8956 58.5571V68.75L37.036 76.125Z" fill="#191919"/>
<path d="M68.8901 102.946H61.1868L77.4505 45.8036H85.1648L68.8901 102.946Z" fill="#191919"/>
<path d="M107.999 75.9822L90.797 68.7215V58.6001L118.273 71.7572V80.3608L90.797 93.5501V83.4287L107.999 75.9822Z" fill="#191919"/>
</g>
<defs>
<clipPath id="clip0_8_33">
<rect width="150" height="150" fill="white"/>
</clipPath>
</defs>
</svg>
