<svg width="80" height="84" viewBox="0 0 80 84" fill="none" xmlns="http://www.w3.org/2000/svg">
<path d="M14.755 71.4026L9.14001 5.25H70.86L65.2375 71.3921L39.9625 78.75L14.755 71.4026Z" fill="#1572B6"/>
<path d="M40 73.1273L60.425 67.1817L65.23 10.6602H40V73.1273Z" fill="#33A9DC"/>
<path d="M40 34.6263H50.225L50.93 26.3182H40V18.2043H40.0275H59.375L59.19 20.3805L57.2925 42.7402H40V34.6263Z" fill="white"/>
<path d="M40.0475 55.6973L40.0125 55.7078L31.4075 53.2665L30.8575 46.7959H26.675H23.1L24.1825 59.535L40.01 64.1498L40.0475 64.1393V55.6973Z" fill="#EBEBEB"/>
<path d="M49.5675 42.3964L48.6375 53.2612L40.02 55.7025V64.1445L55.86 59.535L55.9775 58.1647L57.32 42.3964H49.5675Z" fill="white"/>
<path d="M40.0275 18.2043V23.2443V26.2972V26.3182H21.3875H21.3625L21.2075 24.4938L20.855 20.3805L20.67 18.2043H40.0275Z" fill="#EBEBEB"/>
<path d="M40 34.6263V39.6663V42.7192V42.7402H31.5275H31.5025L31.3475 40.9158L30.9975 36.8025L30.8125 34.6263H40Z" fill="#EBEBEB"/>
</svg>
