<svg width="150" height="150" viewBox="0 0 150 150" fill="none" xmlns="http://www.w3.org/2000/svg">
<g clip-path="url(#clip0_9_51)">
<path d="M73.75 -2.05444L72.9444 -1.66157C55.8121 6.65535 37.2541 10.9653 18.483 10.9899L16.5132 10.9941V13.1299C16.5132 36.5289 19.6426 55.5189 24.4079 70.9415V85.8876H18.2941C17.9735 84.0115 17.2337 82.2071 16.0159 80.7216C14.3384 78.6755 11.7434 77.3278 8.61842 77.3278C5.49343 77.3278 2.89847 78.6755 1.22095 80.7216C-0.456559 82.7678 -1.25 85.412 -1.25 88.0275C-1.25 90.6429 -0.456559 93.2872 1.22095 95.3333C2.89847 97.3795 5.49341 98.7271 8.61842 98.7271C11.7434 98.7271 14.3384 97.3795 16.0159 95.3333C17.2337 93.8479 17.9735 92.0434 18.2941 90.1674H26.3816C27.4716 90.1673 28.3552 89.2093 28.3553 88.0275V82.0674C30.2082 86.6431 32.1883 90.8752 34.2763 94.7064V115.847H22.2415C21.9209 113.971 21.1811 112.166 19.9633 110.681C18.2857 108.634 15.6908 107.287 12.5658 107.287C9.44079 107.287 6.84583 108.634 5.16832 110.681C3.49081 112.727 2.69737 115.371 2.69737 117.987C2.69737 120.602 3.49081 123.246 5.16832 125.292C6.84583 127.339 9.44077 128.686 12.5658 128.686C15.6908 128.686 18.2857 127.339 19.9633 125.292C21.1811 123.807 21.9208 122.002 22.2415 120.126H36.25C37.34 120.126 38.2236 119.168 38.2237 117.987V101.335C40.3269 104.62 42.4757 107.625 44.6343 110.3C48.5027 115.094 52.3801 118.925 55.9869 122.003V135.106H49.873C49.5524 133.23 48.8127 131.426 47.5948 129.94C45.9173 127.894 43.3224 126.546 40.1974 126.546C37.0724 126.546 34.4774 127.894 32.7999 129.94C31.1224 131.986 30.3289 134.63 30.3289 137.246C30.3289 139.861 31.1224 142.506 32.7999 144.552C34.4774 146.598 37.0723 147.946 40.1974 147.946C43.3224 147.946 45.9173 146.598 47.5948 144.552C48.8127 143.066 49.5524 141.262 49.873 139.386H57.9605C59.0505 139.386 59.9341 138.428 59.9342 137.246V125.18C67.5576 130.89 73.1448 132.862 73.1448 132.862L73.75 133.075L74.3552 132.862C74.3552 132.862 79.9424 130.89 87.5658 125.18V137.246C87.5659 138.428 88.4495 139.386 89.5395 139.386H97.627C97.9476 141.262 98.6873 143.066 99.9052 144.552C101.583 146.598 104.178 147.946 107.303 147.946C110.428 147.946 113.023 146.598 114.7 144.552C116.378 142.506 117.171 139.861 117.171 137.246C117.171 134.63 116.378 131.986 114.7 129.94C113.023 127.894 110.428 126.546 107.303 126.546C104.178 126.546 101.583 127.894 99.9052 129.94C98.6873 131.426 97.9476 133.23 97.627 135.106H91.5132V122.003C95.1199 118.925 98.9973 115.094 102.866 110.3C105.024 107.625 107.173 104.62 109.276 101.335V117.987C109.276 119.168 110.16 120.126 111.25 120.126H125.259C125.579 122.002 126.319 123.807 127.537 125.292C129.214 127.339 131.809 128.686 134.934 128.686C138.059 128.686 140.654 127.339 142.332 125.292C144.009 123.246 144.803 120.602 144.803 117.987C144.803 115.371 144.009 112.727 142.332 110.681C140.654 108.634 138.059 107.287 134.934 107.287C131.809 107.287 129.214 108.634 127.537 110.681C126.319 112.166 125.579 113.971 125.259 115.847H113.224V94.7064C115.312 90.8752 117.292 86.6431 119.145 82.0674V88.0275C119.145 89.2093 120.028 90.1673 121.118 90.1674H129.206C129.527 92.0435 130.266 93.8479 131.484 95.3333C133.162 97.3795 135.757 98.7271 138.882 98.7271C142.007 98.7271 144.602 97.3795 146.279 95.3333C147.957 93.2872 148.75 90.6429 148.75 88.0275C148.75 85.412 147.957 82.7678 146.279 80.7216C144.602 78.6755 142.007 77.3278 138.882 77.3278C135.757 77.3278 133.162 78.6755 131.484 80.7216C130.266 82.2071 129.527 84.0115 129.206 85.8876H123.092V70.9415C127.857 55.5189 130.987 36.5289 130.987 13.1299V10.9942L129.017 10.99C110.246 10.9653 91.6879 6.6554 74.5557 -1.66153L73.75 -2.05444ZM73.75 2.58067C90.5429 10.5957 108.632 14.8329 126.97 15.1528C126.675 51.2096 118.897 76.204 109.346 93.3773H109.276V93.4943C106.264 98.8942 103.081 103.538 99.8974 107.483C86.8817 123.611 74.662 128.143 73.75 128.473C72.838 128.143 60.6183 123.611 47.6025 107.483C44.4189 103.538 41.236 98.8942 38.2237 93.4943V93.3773H38.1543C28.6031 76.204 20.8246 51.2096 20.5299 15.1528C38.8675 14.8329 56.9572 10.5957 73.75 2.58067ZM69.9838 13.715C69.7866 13.7238 69.5917 13.7647 69.4056 13.8362L69.1936 13.924C68.7174 14.1238 68.3359 14.5236 68.1356 15.0328C67.9353 15.542 67.9331 16.1173 68.1297 16.6282C68.4431 17.4684 69.202 18.0119 70.0378 17.9949C70.2768 17.9957 70.5141 17.9519 70.7394 17.8653C71.6562 17.5063 72.194 16.4753 72.0052 15.4384C71.8164 14.4015 70.9577 13.6694 69.9838 13.715ZM77.4854 13.7192C76.5266 13.6981 75.6927 14.4272 75.5083 15.4474C75.3239 16.4677 75.8424 17.4841 76.7375 17.8569L76.9457 17.9405C77.1593 18.0254 77.385 18.0693 77.6126 18.0701C78.5723 18.0712 79.3938 17.3237 79.5593 16.2987C79.7247 15.2737 79.1864 14.2681 78.2833 13.9156L77.4276 15.8549L78.1214 13.8488C77.9174 13.7679 77.7025 13.7241 77.4854 13.7192ZM62.4283 16.5195C62.2298 16.518 62.0323 16.549 61.8424 16.6114L61.6458 16.6783C61.1569 16.8467 60.7519 17.2227 60.5231 17.7204C60.2943 18.2181 60.2612 18.7952 60.4315 19.3198C60.7163 20.2205 61.504 20.8197 62.3821 20.8035C62.5871 20.8041 62.791 20.7717 62.9873 20.7074C63.9211 20.4005 64.508 19.3999 64.3682 18.3529C64.2285 17.3059 63.404 16.5267 62.4283 16.5195ZM85.1025 16.532C84.2515 16.5442 83.5123 17.1697 83.2946 18.0617C83.011 19.2259 83.6301 20.4242 84.6939 20.7701C84.8824 20.8337 85.0786 20.8661 85.276 20.8662C86.2546 20.8679 87.0867 20.0921 87.2316 19.0427C87.3764 17.9934 86.7904 16.9873 85.8542 16.6783L85.6653 16.6156C85.4827 16.5572 85.293 16.5291 85.1025 16.532ZM54.5644 18.8768C54.4319 18.8819 54.3001 18.9015 54.1712 18.9353L53.9476 18.998C53.4504 19.1414 53.0277 19.4967 52.7758 19.9832C52.5239 20.4697 52.4641 21.0459 52.61 21.5809C52.8613 22.5312 53.6681 23.1817 54.5798 23.1692C54.7528 23.1691 54.9251 23.1452 55.0925 23.0981C56.0816 22.8452 56.7319 21.8194 56.5954 20.7276C56.4588 19.6358 55.5799 18.8349 54.5644 18.8768ZM92.9086 18.8809C91.9117 18.8667 91.0616 19.6609 90.9272 20.732C90.7928 21.8031 91.4164 22.8147 92.3805 23.0897C92.3902 23.0929 92.5877 23.1461 92.5964 23.1483C92.749 23.1894 92.9056 23.2105 93.0628 23.211C94.0652 23.2154 94.9114 22.4046 95.0306 21.3256C95.1499 20.2465 94.5042 19.242 93.5293 18.9896L92.8701 21.0167L93.3635 18.9436C93.2147 18.9036 93.062 18.8826 92.9086 18.8809ZM46.7622 20.791C46.6303 20.7893 46.4986 20.8019 46.369 20.8286L46.1724 20.8704C45.6695 20.9808 45.2295 21.3079 44.9533 21.7768C44.6771 22.2457 44.5884 22.8161 44.7075 23.3572C44.9247 24.3746 45.7683 25.089 46.7313 25.0708C46.8619 25.0718 46.9923 25.0592 47.1207 25.0332C48.1174 24.8253 48.8063 23.8319 48.7136 22.736C48.621 21.6402 47.7771 20.799 46.7622 20.791ZM100.757 20.7952C99.8337 20.8147 99.0574 21.5523 98.9183 22.5422C98.7538 23.7313 99.4861 24.8484 100.576 25.0709C100.702 25.0978 100.829 25.1118 100.958 25.1126C101.977 25.1156 102.831 24.2754 102.927 23.1746C103.023 22.0737 102.33 21.0748 101.328 20.8704L101.135 20.8286C101.01 20.8038 100.884 20.7926 100.757 20.7952ZM38.7094 22.2538C38.6437 22.2558 38.578 22.2614 38.5128 22.2705L38.2931 22.304C37.7841 22.3886 37.3285 22.6934 37.0306 23.1487C36.7327 23.6041 36.618 24.171 36.7126 24.7198C36.8888 25.7827 37.7481 26.5517 38.7441 26.5379C38.8422 26.5371 38.9401 26.5287 39.0371 26.5128C40.0742 26.3552 40.8173 25.3469 40.7303 24.2153C40.6432 23.0838 39.7563 22.2229 38.7094 22.2538ZM108.741 22.2538C107.711 22.2568 106.856 23.1174 106.777 24.2306C106.699 25.3438 107.423 26.3356 108.44 26.5086C108.449 26.5097 108.65 26.5399 108.66 26.5421C108.748 26.5552 108.837 26.5622 108.926 26.563C109.959 26.5548 110.812 25.6836 110.881 24.5654C110.949 23.4473 110.211 22.4609 109.188 22.304L108.729 24.3938L109.022 22.2747C108.929 22.2605 108.835 22.2535 108.741 22.2538ZM30.329 23.8295C29.2389 23.8295 28.3553 24.7876 28.3553 25.9695C28.3553 27.1513 29.2389 28.1094 30.329 28.1094C31.419 28.1094 32.3026 27.1513 32.3026 25.9695C32.3026 24.7876 31.419 23.8295 30.329 23.8295ZM117.171 23.8295C116.081 23.8295 115.197 24.7876 115.197 25.9695C115.197 27.1513 116.081 28.1094 117.171 28.1094C118.261 28.1094 119.145 27.1513 119.145 25.9695C119.145 24.7876 118.261 23.8295 117.171 23.8295ZM116.593 32.08C115.556 32.0795 114.696 32.9484 114.623 34.0694C114.623 34.0799 114.609 34.2972 114.608 34.3077C114.583 34.861 114.766 35.4015 115.114 35.8068C115.463 36.212 115.947 36.4476 116.458 36.4601C116.496 36.4622 116.54 36.4642 116.577 36.4643C117.635 36.4205 118.491 35.519 118.563 34.3745V34.362C118.599 33.771 118.408 33.1902 118.034 32.7577C117.661 32.3253 117.139 32.0799 116.593 32.08ZM30.8262 32.197C30.293 32.212 29.7881 32.4604 29.4264 32.8856C29.0648 33.3107 28.8773 33.8765 28.9065 34.454L28.9181 34.6755C28.9799 35.8062 29.8432 36.6891 30.8879 36.69C30.9255 36.69 30.9649 36.6921 31.0036 36.69C32.0925 36.6219 32.9243 35.6096 32.8616 34.4289L32.85 34.2116C32.7878 33.0577 31.8919 32.1659 30.8262 32.197ZM115.71 40.9657C114.749 40.9939 113.946 41.7687 113.81 42.8005L113.775 43.0471C113.707 43.6102 113.849 44.1794 114.168 44.6294C114.488 45.0793 114.959 45.3731 115.479 45.4461C115.564 45.4579 115.651 45.4635 115.737 45.4629C116.728 45.4613 117.564 44.6639 117.691 43.5988L117.715 43.4149C117.799 42.7901 117.624 42.1569 117.238 41.6846C116.851 41.2123 116.292 40.9492 115.71 40.9657ZM31.5625 41.2039C31.498 41.2074 31.4337 41.2144 31.3698 41.2248C30.2858 41.4007 29.5294 42.4824 29.6659 43.6615L29.6775 43.7869C29.8052 44.852 30.6413 45.6494 31.6319 45.651C31.7183 45.6502 31.8046 45.6432 31.8902 45.6301C32.4096 45.557 32.881 45.2632 33.2005 44.8132C33.5201 44.3633 33.6616 43.7941 33.594 43.231L33.567 43.0136C33.4281 41.9409 32.5607 41.1578 31.5625 41.2039ZM73.6498 43.0764C71.9296 43.0727 70.1754 43.5672 68.5498 44.6604C62.5576 48.6903 62.76 57.845 68.1643 62.1518L65.5006 79.4677H81.9994L79.3357 62.1477C81.8467 60.1674 83.61 57.2334 83.6184 53.7969C83.6428 47.5748 78.8102 43.087 73.6498 43.0764ZM73.75 47.281C76.8661 47.2322 79.6862 49.9127 79.6711 53.7802V53.7844C79.6659 56.227 78.388 58.4429 76.3636 59.5145L75.0375 60.2125L77.3427 75.1878H70.1573L72.4625 60.2167L71.1403 59.5145C66.8706 57.243 66.5861 51.0146 70.6276 48.2966C71.638 47.6171 72.7113 47.2972 73.75 47.281ZM114.226 49.7762C113.341 49.8287 112.597 50.5141 112.406 51.4522L112.36 51.6946C112.241 52.3248 112.389 52.9799 112.764 53.4784C113.14 53.9768 113.702 54.2657 114.295 54.265C115.23 54.2642 116.037 53.5523 116.227 52.5598L116.261 52.3759C116.395 51.7222 116.239 51.0384 115.839 50.528C115.439 50.0176 114.842 49.7394 114.226 49.7762ZM32.9426 50.0395C32.3404 50.0223 31.764 50.3041 31.3773 50.8049C30.9906 51.3055 30.836 51.9703 30.9573 52.6099L30.992 52.7896C31.168 53.7986 31.98 54.53 32.9271 54.5325C33.5155 54.5341 34.0738 54.2509 34.4497 53.7601C34.8255 53.2693 34.9797 52.6223 34.87 51.9955L34.8237 51.7447C34.6378 50.7717 33.8587 50.0655 32.9426 50.0395ZM112.341 58.5574C111.417 58.545 110.599 59.2012 110.34 60.1624C110.16 60.811 110.272 61.514 110.645 62.0583C111.017 62.6025 111.604 62.924 112.229 62.9251C113.099 62.924 113.866 62.3063 114.118 61.4037L114.18 61.1864C114.323 60.6512 114.259 60.0761 114.003 59.593C113.747 59.1099 113.321 58.7603 112.823 58.6243C112.665 58.5815 112.503 58.559 112.341 58.5574ZM34.7042 58.7999C34.1015 58.8208 33.5406 59.1393 33.1816 59.6646C32.8225 60.1899 32.7046 60.8643 32.8616 61.4957L32.9233 61.7339C33.1512 62.6214 33.9048 63.2287 34.7543 63.2093C34.9526 63.2082 35.1498 63.1772 35.3402 63.1173C36.3921 62.7454 36.9822 61.536 36.674 60.3839C36.4364 59.424 35.6204 58.7678 34.7042 58.7999ZM109.608 67.0085C108.761 67.0153 108.005 67.5844 107.704 68.4421C107.46 69.1015 107.533 69.8491 107.9 70.4377C108.267 71.0264 108.879 71.3795 109.535 71.3803C110.342 71.3802 111.069 70.8474 111.37 70.0345L111.45 69.8004C111.632 69.2788 111.61 68.6999 111.391 68.1958C111.171 67.6918 110.773 67.3056 110.286 67.1255C110.068 67.0455 109.838 67.0059 109.608 67.0085ZM37.2369 67.3679C36.6 67.3845 36.0097 67.7333 35.6517 68.3047C35.2938 68.8761 35.2122 69.5996 35.4328 70.2476L35.4983 70.4441C35.7822 71.2891 36.523 71.8518 37.3525 71.8526C37.9966 71.8527 38.6003 71.5125 38.9702 70.9408C39.3401 70.3691 39.4298 69.6378 39.2105 68.9812L39.1373 68.7639C38.8443 67.9059 38.0805 67.3448 37.2369 67.3679ZM106.273 75.0876C105.532 75.0993 104.858 75.5611 104.531 76.2829L104.435 76.4919C104.138 77.1551 104.178 77.9369 104.539 78.5611C104.9 79.1854 105.532 79.5642 106.212 79.5639C106.969 79.5639 107.659 79.0947 107.989 78.356L108.074 78.1721C108.377 77.5037 108.338 76.7125 107.97 76.0831C107.603 75.4537 106.96 75.0767 106.273 75.0876ZM40.4518 75.6727C39.7807 75.6806 39.1594 76.0577 38.8023 76.6739C38.4453 77.29 38.4016 78.0607 38.6863 78.7196L38.7749 78.9286C39.0795 79.6366 39.739 80.085 40.4595 80.0738C40.7732 80.0723 41.0826 79.9952 41.3654 79.8481C42.3477 79.2882 42.7434 77.9845 42.2597 76.9015C41.9309 76.1435 41.2244 75.6632 40.4518 75.6727ZM8.61844 81.6077C10.7566 81.6077 12.109 82.3999 13.0631 83.5637C14.0171 84.7274 14.5395 86.3631 14.5395 88.0275C14.5395 89.6919 14.0172 91.3275 13.0631 92.4912C12.109 93.655 10.7566 94.4473 8.61844 94.4473C6.48029 94.4473 5.12786 93.655 4.1738 92.4912C3.21974 91.3275 2.69739 89.6919 2.69739 88.0275C2.69739 86.3631 3.21972 84.7274 4.1738 83.5637C5.12786 82.3999 6.48029 81.6077 8.61844 81.6077ZM138.882 81.6077C141.02 81.6077 142.372 82.3999 143.326 83.5637C144.28 84.7274 144.803 86.3631 144.803 88.0275C144.803 89.6919 144.28 91.3275 143.326 92.4912C142.372 93.655 141.02 94.4473 138.882 94.4473C136.743 94.4473 135.391 93.655 134.437 92.4912C133.483 91.3275 132.961 89.6919 132.961 88.0275C132.961 86.3631 133.483 84.7274 134.437 83.5637C135.391 82.3999 136.743 81.6077 138.882 81.6077ZM102.307 82.9493C101.636 82.9718 101.022 83.3622 100.676 83.9858L100.568 84.1823C100.207 84.8428 100.2 85.6623 100.55 86.3298C100.9 86.9974 101.552 87.4107 102.261 87.4131L102.264 87.4173C102.961 87.417 103.606 87.0182 103.96 86.3682L104.061 86.1885C104.432 85.5172 104.435 84.6798 104.07 84.0048C103.704 83.3299 103.028 82.9251 102.307 82.9493ZM44.3606 83.6264C43.6532 83.6231 42.9983 84.0306 42.644 84.6945C42.2896 85.3584 42.2901 86.1771 42.6452 86.8405L42.7609 87.0494C43.0919 87.6614 43.6986 88.0357 44.3529 88.0316C44.7298 88.0284 45.0989 87.9143 45.4207 87.7014C46.348 87.0454 46.6278 85.7098 46.0529 84.6838C45.7005 84.0322 45.0573 83.6303 44.3606 83.6264ZM97.7503 90.4182C97.1489 90.4436 96.5911 90.7653 96.2354 91.2917L96.1082 91.4839C95.6759 92.1353 95.616 92.9942 95.9532 93.7085C96.2903 94.4229 96.9678 94.8727 97.7079 94.8736C98.3435 94.8741 98.9404 94.5427 99.3115 93.9833L99.4195 93.8203C99.8669 93.1578 99.9252 92.2762 99.5695 91.5513C99.2139 90.8265 98.507 90.3862 97.7503 90.4182ZM48.9325 91.1245C48.1904 91.1211 47.5093 91.5691 47.1694 92.2843C46.8294 92.9994 46.8881 93.8608 47.3212 94.5141L47.4638 94.7231C47.8111 95.237 48.3641 95.5399 48.9518 95.5381V95.534C49.7189 95.5319 50.4178 95.0557 50.7523 94.3072C51.0868 93.5587 50.9984 92.6689 50.5246 92.0148C50.1557 91.459 49.5639 91.1281 48.9325 91.1245ZM92.5964 97.4398C92.0634 97.4694 91.5641 97.7318 91.2125 98.1671L91.0814 98.3342C90.5761 98.9675 90.4579 99.8621 90.7788 100.624C91.0998 101.385 91.8009 101.874 92.5732 101.874C93.1461 101.875 93.6906 101.605 94.0651 101.135L94.1961 100.972C94.711 100.322 94.819 99.4022 94.4708 98.6335C94.1226 97.8648 93.3852 97.3952 92.5964 97.4398ZM54.1442 98.0876C53.3665 98.1015 52.6688 98.6094 52.3626 99.3846C52.0563 100.16 52.1984 101.058 52.7257 101.678L52.849 101.824C53.2225 102.275 53.7552 102.531 54.3139 102.53C55.0945 102.53 55.8017 102.031 56.1177 101.257C56.4338 100.483 56.2994 99.5797 55.7748 98.9528L55.6245 98.7773C55.244 98.3296 54.7057 98.0788 54.1442 98.0876ZM86.8873 103.914C86.4232 103.947 85.985 104.158 85.6499 104.507L85.5034 104.658C84.9236 105.263 84.7403 106.189 85.0403 106.998C85.3403 107.807 86.0635 108.338 86.8681 108.34C87.3779 108.342 87.8685 108.129 88.2366 107.747L88.383 107.592C88.981 106.969 89.1563 106.008 88.8219 105.186C88.4874 104.363 87.7146 103.855 86.8873 103.914ZM60.0075 104.399C59.1938 104.421 58.4765 104.983 58.2011 105.814C57.9256 106.644 58.1485 107.573 58.7623 108.152L58.9165 108.302C59.277 108.648 59.742 108.839 60.2233 108.837C61.0426 108.836 61.7758 108.286 62.066 107.456C62.3562 106.625 62.143 105.686 61.5301 105.097L61.3836 104.95C61.0073 104.582 60.5145 104.384 60.0075 104.399ZM80.7504 109.832C80.2674 109.816 79.7949 109.987 79.4167 110.313C78.7386 110.866 78.4629 111.828 78.7321 112.701C79.0014 113.574 79.7551 114.162 80.6039 114.162C81.0307 114.163 81.4461 114.014 81.7874 113.736L81.9801 113.577C82.3838 113.23 82.6407 112.72 82.6923 112.164C82.7438 111.609 82.5857 111.054 82.2538 110.626C81.8801 110.141 81.3331 109.852 80.7504 109.832ZM66.526 109.995C65.6764 110.021 64.9372 110.633 64.6913 111.515C64.4455 112.397 64.7483 113.351 65.4428 113.882L65.6124 114.012C65.9201 114.252 66.2894 114.382 66.6686 114.384C67.317 114.37 67.9185 114.015 68.28 113.431C68.8804 112.419 68.6332 111.073 67.721 110.388C67.3724 110.12 66.9531 109.982 66.526 109.995ZM12.5658 111.567C14.704 111.567 16.0564 112.359 17.0104 113.523C17.9645 114.686 18.4869 116.322 18.4869 117.986C18.4869 119.651 17.9645 121.287 17.0104 122.45C16.0564 123.614 14.704 124.406 12.5658 124.406C10.4277 124.406 9.07523 123.614 8.12117 122.45C7.16711 121.287 6.64475 119.651 6.64475 117.986C6.64475 116.322 7.16709 114.686 8.12117 113.523C9.07523 112.359 10.4277 111.567 12.5658 111.567ZM134.934 111.567C137.072 111.567 138.425 112.359 139.379 113.523C140.333 114.686 140.855 116.322 140.855 117.986C140.855 119.651 140.333 121.287 139.379 122.45C138.425 123.614 137.072 124.406 134.934 124.406C132.796 124.406 131.444 123.614 130.49 122.45C129.535 121.287 129.013 119.651 129.013 117.986C129.013 116.322 129.535 114.686 130.49 113.523C131.444 112.359 132.796 111.567 134.934 111.567ZM73.75 115.847C72.66 115.847 71.7763 116.805 71.7763 117.986C71.7763 119.168 72.66 120.126 73.75 120.126C74.84 120.126 75.7237 119.168 75.7237 117.986C75.7237 116.805 74.84 115.847 73.75 115.847ZM40.1974 130.826C42.3355 130.826 43.688 131.618 44.642 132.782C45.5961 133.946 46.1184 135.581 46.1184 137.246C46.1184 138.91 45.5961 140.546 44.642 141.71C43.688 142.873 42.3355 143.666 40.1974 143.666C38.0592 143.666 36.7068 142.873 35.7527 141.71C34.7987 140.546 34.2763 138.91 34.2763 137.246C34.2763 135.581 34.7987 133.946 35.7527 132.782C36.7068 131.618 38.0592 130.826 40.1974 130.826ZM107.303 130.826C109.441 130.826 110.793 131.618 111.747 132.782C112.701 133.946 113.224 135.581 113.224 137.246C113.224 138.91 112.701 140.546 111.747 141.71C110.793 142.873 109.441 143.666 107.303 143.666C105.164 143.666 103.812 142.873 102.858 141.71C101.904 140.546 101.382 138.91 101.382 137.246C101.382 135.581 101.904 133.946 102.858 132.782C103.812 131.618 105.164 130.826 107.303 130.826Z" fill="#AA1B39"/>
</g>
<defs>
<clipPath id="clip0_9_51">
<rect width="150" height="150" fill="white"/>
</clipPath>
</defs>
</svg>
