<svg width="80" height="84" viewBox="0 0 80 84" fill="none" xmlns="http://www.w3.org/2000/svg">
<path d="M40 84C62.0914 84 80 65.196 80 42C80 18.804 62.0914 0 40 0C17.9086 0 0 18.804 0 42C0 65.196 17.9086 84 40 84Z" fill="#0091E2"/>
<path d="M64.6328 37.8574C64.5078 37.7508 63.3749 36.8566 60.9843 36.8566C60.3515 36.8566 59.7187 36.9059 59.0937 37.0289C58.6328 33.6902 56.0078 32.066 55.8906 31.9922L55.25 31.5984L54.8281 32.2383C54.2968 33.0996 53.914 34.043 53.6875 35.0438C53.2578 36.9469 53.5156 38.7352 54.4375 40.2609C53.3281 40.909 51.539 41.073 51.1796 41.0812H21.6406C20.8672 41.0812 20.2422 41.7375 20.2422 42.5496C20.2109 45.2648 20.6484 47.9637 21.5312 50.5148C22.5469 53.3203 24.0625 55.3793 26.0312 56.6426C28.2343 58.0617 31.8203 58.8738 35.8906 58.8738C37.7265 58.882 39.5625 58.7016 41.3672 58.3488C43.875 57.8648 46.289 56.9461 48.5078 55.6254C50.3359 54.5098 51.9843 53.0988 53.3828 51.4336C55.7187 48.6527 57.1171 45.552 58.1562 42.8039H58.5703C61.1328 42.8039 62.7109 41.7293 63.5781 40.827C64.1562 40.2527 64.6093 39.5555 64.8984 38.7762L65.0781 38.2102L64.6328 37.8574ZM24.375 40.1871H28.3359C28.5234 40.1871 28.6797 40.023 28.6797 39.8262V36.1266C28.6797 35.9297 28.5234 35.7656 28.3359 35.7574H24.375C24.1875 35.7574 24.0312 35.9215 24.0312 36.1184V39.8262C24.0312 40.0312 24.1875 40.1871 24.375 40.1871ZM29.8359 40.1871H33.7968C33.9843 40.1871 34.1406 40.023 34.1406 39.8262V36.1266C34.1406 35.9297 33.9843 35.7656 33.7968 35.7574H29.8359C29.6406 35.7574 29.4843 35.9215 29.4843 36.1266V39.8262C29.4843 40.0312 29.6406 40.1871 29.8359 40.1871ZM35.3672 40.1953H39.3281C39.5156 40.1953 39.6718 40.0313 39.6718 39.8344V36.1348C39.6718 35.9379 39.5156 35.7738 39.3281 35.7656H35.3672C35.1797 35.7656 35.0234 35.9297 35.0234 36.1266V39.8344C35.0234 40.0313 35.1797 40.1871 35.3672 40.1953ZM40.8437 40.1953H44.8046C44.9921 40.1953 45.1484 40.0313 45.1562 39.8344V36.1348C45.1562 35.9297 45 35.7656 44.8046 35.7656H40.8437C40.6562 35.7656 40.5 35.9297 40.5 36.1266V39.8344C40.5 40.0313 40.6484 40.1953 40.8437 40.1953ZM29.8281 34.8633H33.789C33.9765 34.8633 34.1328 34.6992 34.1328 34.4941V30.7945C34.1328 30.5977 33.9765 30.4336 33.789 30.4336H29.8281C29.6328 30.4336 29.4843 30.5977 29.4765 30.7945V34.4941C29.4843 34.6992 29.6406 34.8633 29.8281 34.8633ZM35.3672 34.8633H39.3281C39.5156 34.8633 39.6718 34.6992 39.6718 34.4941V30.7945C39.6718 30.5977 39.5156 30.4336 39.3281 30.4336H35.3672C35.1797 30.4336 35.0234 30.5977 35.0234 30.7945V34.4941C35.0234 34.6992 35.1797 34.8633 35.3672 34.8633ZM40.8437 34.8633H44.8046C45 34.8633 45.1484 34.6992 45.1562 34.4941V30.7945C45.1562 30.5895 45 30.4336 44.8046 30.4336H40.8437C40.6562 30.4336 40.5 30.5977 40.5 30.7945V34.4941C40.5 34.6992 40.6484 34.8633 40.8437 34.8633ZM40.8437 29.5395H44.8046C45 29.5395 45.1562 29.3754 45.1562 29.1703V25.4625C45.1562 25.2656 45 25.1016 44.8046 25.1016H40.8437C40.6562 25.1016 40.5 25.2656 40.5 25.4625V29.1703C40.5 29.3754 40.6484 29.5395 40.8437 29.5395ZM46.3593 40.1953H50.3203C50.5078 40.1953 50.664 40.0313 50.664 39.8344V36.1348C50.664 35.9297 50.5078 35.7738 50.3203 35.7656H46.3593C46.1718 35.7656 46.0156 35.9297 46.0156 36.1266V39.8344C46.0156 40.0313 46.1718 40.1953 46.3593 40.1953Z" fill="white"/>
</svg>
