<svg width="150" height="150" viewBox="0 0 150 150" fill="none" xmlns="http://www.w3.org/2000/svg">
<path d="M22.2656 11.7188C22.2656 41.9016 22.2656 61.1531 22.2656 91.4062C22.2656 93.3445 23.843 94.9219 25.7812 94.9219H124.219C126.157 94.9219 127.734 93.3445 127.734 91.4062C127.734 61.1578 127.734 41.8969 127.734 11.7188C127.734 9.78047 126.157 8.20312 124.219 8.20312H25.7812C23.843 8.20312 22.2656 9.78047 22.2656 11.7188ZM24.6094 91.4062V24.6094H50.3906V92.5781H25.7812C25.1344 92.5781 24.6094 92.0531 24.6094 91.4062ZM125.391 91.4062C125.391 92.0531 124.866 92.5781 124.219 92.5781H52.7344V24.6094H125.391V91.4062ZM125.391 11.7188V22.2656H24.6094V11.7188C24.6094 11.0719 25.1344 10.5469 25.7812 10.5469H124.219C124.866 10.5469 125.391 11.0719 125.391 11.7188Z" fill="#AA1B39"/>
<path d="M119.531 19.9219C121.47 19.9219 123.047 18.3445 123.047 16.4062C123.047 14.468 121.47 12.8906 119.531 12.8906C117.593 12.8906 116.016 14.468 116.016 16.4062C116.016 18.3445 117.593 19.9219 119.531 19.9219ZM119.531 15.2344C120.178 15.2344 120.703 15.7594 120.703 16.4062C120.703 17.0531 120.178 17.5781 119.531 17.5781C118.884 17.5781 118.359 17.0531 118.359 16.4062C118.359 15.7594 118.884 15.2344 119.531 15.2344Z" fill="#AA1B39"/>
<path d="M110.156 19.9219C112.095 19.9219 113.672 18.3445 113.672 16.4062C113.672 14.468 112.095 12.8906 110.156 12.8906C108.218 12.8906 106.641 14.468 106.641 16.4062C106.641 18.3445 108.218 19.9219 110.156 19.9219ZM110.156 15.2344C110.803 15.2344 111.328 15.7594 111.328 16.4062C111.328 17.0531 110.803 17.5781 110.156 17.5781C109.509 17.5781 108.984 17.0531 108.984 16.4062C108.984 15.7594 109.509 15.2344 110.156 15.2344Z" fill="#AA1B39"/>
<path d="M100.781 19.9219C102.72 19.9219 104.297 18.3445 104.297 16.4062C104.297 14.468 102.72 12.8906 100.781 12.8906C98.843 12.8906 97.2656 14.468 97.2656 16.4062C97.2656 18.3445 98.843 19.9219 100.781 19.9219ZM100.781 15.2344C101.428 15.2344 101.953 15.7594 101.953 16.4062C101.953 17.0531 101.428 17.5781 100.781 17.5781C100.134 17.5781 99.6094 17.0531 99.6094 16.4062C99.6094 15.7594 100.134 15.2344 100.781 15.2344Z" fill="#AA1B39"/>
<path d="M65.625 15.2344H28.125V17.5781H65.625V15.2344Z" fill="#AA1B39"/>
<path d="M63.2812 59.7656H114.844C116.782 59.7656 118.359 58.1883 118.359 56.25V42.1875C118.359 40.2492 116.782 38.6719 114.844 38.6719H63.2812C61.343 38.6719 59.7656 40.2492 59.7656 42.1875V56.25C59.7656 58.1883 61.343 59.7656 63.2812 59.7656ZM62.1094 42.1875C62.1094 41.5406 62.6344 41.0156 63.2812 41.0156H114.844C115.491 41.0156 116.016 41.5406 116.016 42.1875V56.25C116.016 56.8969 115.491 57.4219 114.844 57.4219H63.2812C62.6344 57.4219 62.1094 56.8969 62.1094 56.25V42.1875Z" fill="#AA1B39"/>
<path d="M70.3125 31.6406H62.1094V33.9844H70.3125V31.6406Z" fill="#AA1B39"/>
<path d="M84.375 31.6406H75V33.9844H84.375V31.6406Z" fill="#AA1B39"/>
<path d="M98.4375 31.6406H89.0625V33.9844H98.4375V31.6406Z" fill="#AA1B39"/>
<path d="M116.016 31.6406H103.125V33.9844H116.016V31.6406Z" fill="#AA1B39"/>
<path d="M75 64.4531H62.1094V66.7969H75V64.4531Z" fill="#AA1B39"/>
<path d="M98.4375 64.4531H79.6875V66.7969H98.4375V64.4531Z" fill="#AA1B39"/>
<path d="M116.016 64.4531H103.125V66.7969H116.016V64.4531Z" fill="#AA1B39"/>
<path d="M75 71.4844H62.1094V73.8281H75V71.4844Z" fill="#AA1B39"/>
<path d="M98.4375 71.4844H79.6875V73.8281H98.4375V71.4844Z" fill="#AA1B39"/>
<path d="M116.016 71.4844H103.125V73.8281H116.016V71.4844Z" fill="#AA1B39"/>
<path d="M75 78.5156H62.1094V80.8594H75V78.5156Z" fill="#AA1B39"/>
<path d="M98.4375 78.5156H79.6875V80.8594H98.4375V78.5156Z" fill="#AA1B39"/>
<path d="M116.016 78.5156H103.125V80.8594H116.016V78.5156Z" fill="#AA1B39"/>
<path d="M46.875 31.6406H28.125V33.9844H46.875V31.6406Z" fill="#AA1B39"/>
<path d="M46.875 41.0156H28.125V43.3594H46.875V41.0156Z" fill="#AA1B39"/>
<path d="M46.875 50.3906H28.125V52.7344H46.875V50.3906Z" fill="#AA1B39"/>
<path d="M46.875 59.7656H28.125V62.1094H46.875V59.7656Z" fill="#AA1B39"/>
<path d="M46.875 69.1406H28.125V71.4844H46.875V69.1406Z" fill="#AA1B39"/>
<path d="M46.875 78.5156H28.125V80.8594H46.875V78.5156Z" fill="#AA1B39"/>
<path d="M61.3523 121.68L59.9461 130.078H51.5625C48.3328 130.078 45.7031 132.708 45.7031 135.937V138.281C45.7031 140.219 47.2805 141.797 49.2188 141.797H100.781C102.72 141.797 104.297 140.219 104.297 138.281V135.937C104.297 132.708 101.667 130.078 98.4375 130.078H90.0562L88.6711 121.683L86.3602 122.065L87.682 130.076H62.3227L63.6633 122.067L61.3523 121.68ZM98.4375 132.422C100.376 132.422 101.953 133.999 101.953 135.937V138.281C101.953 138.928 101.428 139.453 100.781 139.453H49.2188C48.5719 139.453 48.0469 138.928 48.0469 138.281V135.937C48.0469 133.999 49.6242 132.422 51.5625 132.422C61.807 132.422 88.3242 132.422 98.4375 132.422Z" fill="#AA1B39"/>
<path d="M135.938 26.9531H131.25V29.2969H135.938C137.876 29.2969 139.453 30.8742 139.453 32.8125V112.5C139.453 114.438 137.876 116.016 135.938 116.016H14.0625C12.1242 116.016 10.5469 114.438 10.5469 112.5V32.8125C10.5469 30.8742 12.1242 29.2969 14.0625 29.2969H18.75V26.9531H14.0625C10.8328 26.9531 8.20312 29.5828 8.20312 32.8125V112.5C8.20312 115.73 10.8328 118.359 14.0625 118.359H135.938C139.167 118.359 141.797 115.73 141.797 112.5V32.8125C141.797 29.5828 139.167 26.9531 135.938 26.9531Z" fill="#AA1B39"/>
<path d="M137.109 35.1562C137.109 33.218 135.532 31.6406 133.594 31.6406H131.25V33.9844H133.594C134.241 33.9844 134.766 34.5094 134.766 35.1562V100.781C134.766 101.428 134.241 101.953 133.594 101.953H16.4062C15.7594 101.953 15.2344 101.428 15.2344 100.781V35.1562C15.2344 34.5094 15.7594 33.9844 16.4062 33.9844H18.75V31.6406H16.4062C14.468 31.6406 12.8906 33.218 12.8906 35.1562V100.781C12.8906 102.72 14.468 104.297 16.4062 104.297H133.594C135.532 104.297 137.109 102.72 137.109 100.781V35.1562Z" fill="#AA1B39"/>
<path d="M133.594 106.641H124.219C122.28 106.641 120.703 108.218 120.703 110.156C120.703 112.095 122.28 113.672 124.219 113.672H133.594C135.532 113.672 137.109 112.095 137.109 110.156C137.109 108.218 135.532 106.641 133.594 106.641ZM133.594 111.328H124.219C123.572 111.328 123.047 110.803 123.047 110.156C123.047 109.509 123.572 108.984 124.219 108.984H133.594C134.241 108.984 134.766 109.509 134.766 110.156C134.766 110.803 134.241 111.328 133.594 111.328Z" fill="#AA1B39"/>
<path d="M111.328 110.156C111.328 112.095 112.905 113.672 114.844 113.672C116.782 113.672 118.359 112.095 118.359 110.156C118.359 108.218 116.782 106.641 114.844 106.641C112.905 106.641 111.328 108.218 111.328 110.156ZM116.016 110.156C116.016 110.803 115.491 111.328 114.844 111.328C114.197 111.328 113.672 110.803 113.672 110.156C113.672 109.509 114.197 108.984 114.844 108.984C115.491 108.984 116.016 109.509 116.016 110.156Z" fill="#AA1B39"/>
</svg>
