<svg width="80" height="82" viewBox="0 0 80 82" fill="none" xmlns="http://www.w3.org/2000/svg">
<path d="M14.755 69.7026L9.13745 5.125H70.8624L65.2374 69.6923L39.9625 76.875L14.755 69.7026Z" fill="#E44F26"/>
<path d="M40 71.3862L60.425 65.5821L65.23 10.4064H40V71.3862Z" fill="#F1662A"/>
<path d="M40 34.3555H29.775L29.07 26.2451H40V18.3245H39.9725H20.625L20.81 20.4513L22.7075 42.2761H40V34.3555Z" fill="#EBEBEB"/>
<path d="M40 54.9247L39.965 54.9349L31.36 52.5544L30.81 46.2378H26.6275H23.0525L24.135 58.671L39.965 63.1759L40 63.1657V54.9247Z" fill="#EBEBEB"/>
<path d="M39.9725 34.3555V42.2762H49.4875L48.5925 52.5492L39.9725 54.9323V63.1733L55.815 58.671L55.93 57.3334L57.745 36.4823L57.935 34.3555H55.8525H39.9725Z" fill="white"/>
<path d="M39.9725 18.3245V23.2445V26.2272V26.2451H58.6125H58.6375L58.7925 24.4668L59.145 20.4513L59.33 18.3245H39.9725Z" fill="white"/>
</svg>
