<svg width="80" height="84" viewBox="0 0 80 84" fill="none" xmlns="http://www.w3.org/2000/svg">
<path d="M75 5.25H5V78.75H75V5.25Z" fill="#F5DE19"/>
<path d="M52.0226 62.6719C52.619 63.944 53.5456 65.0132 54.6956 65.7563C55.8457 66.4994 57.1723 66.8861 58.5226 66.8719C61.2476 66.8719 62.9901 65.4413 62.9901 63.4594C62.9901 61.0969 61.2001 60.2517 58.2001 58.8736L56.5551 58.1333C51.8051 56.0097 48.6551 53.3505 48.6551 47.7278C48.6551 42.5487 52.4051 38.6033 58.2876 38.6033C60.1918 38.4589 62.0944 38.9064 63.758 39.89C65.4217 40.8736 66.7727 42.3497 67.6426 44.1342L62.5001 47.5861C62.1651 46.7012 61.5819 45.9442 60.8278 45.4154C60.0737 44.8866 59.1843 44.6109 58.2776 44.6251C57.882 44.5835 57.4824 44.6289 57.1045 44.7584C56.7265 44.8879 56.3784 45.0986 56.0823 45.3772C55.7862 45.6557 55.5486 45.996 55.3846 46.3763C55.2207 46.7566 55.134 47.1686 55.1301 47.5861C55.1301 49.6572 56.3526 50.4972 59.1751 51.7861L60.8201 52.5263C66.4101 55.0437 69.5701 57.6083 69.5701 63.3754C69.5701 69.594 64.9176 73.0013 58.6701 73.0013C56.2358 73.1642 53.8087 72.5839 51.6816 71.3304C49.5545 70.077 47.8183 68.204 46.6826 65.9374L52.0226 62.6719ZM28.7851 63.2704C29.8176 65.1946 30.7576 66.822 33.0176 66.822C35.1776 66.822 36.5426 65.9348 36.5426 62.4829V38.9971H43.1201V62.5748C43.1201 69.7253 39.1201 72.9803 33.2976 72.9803C31.2394 73.0984 29.1954 72.5599 27.4343 71.4354C25.6731 70.311 24.2772 68.6533 23.4301 66.6803L28.7851 63.2704Z" fill="black"/>
</svg>
