<svg width="80" height="84" viewBox="0 0 80 84" fill="none" xmlns="http://www.w3.org/2000/svg">
<path d="M57.3997 5.42814C56.6925 5.05687 55.9487 4.68987 55.1846 4.3442C54.4856 4.02414 53.7906 3.72969 53.0794 3.45657C49.6573 2.11232 46.2311 1.29296 42.8008 1.01131C37.1597 0.533353 31.5063 1.4722 25.8204 3.82784C23.9143 4.62159 22.1097 5.52629 20.4068 6.55049C17.0497 8.57327 14.0991 11.0441 11.5874 13.9503C8.79115 17.1708 6.50027 20.9418 4.7147 25.2633C3.06868 29.2449 2.04449 33.2392 1.63806 37.1824C1.60148 37.5622 1.56897 37.9164 1.54052 38.2706C1.23976 42.1625 1.52426 46.016 2.37369 49.8781C2.83702 51.9734 3.45072 54.0389 4.22293 56.0958C6.47453 62.066 9.68935 67.0547 13.8593 71.0405C16.4157 73.4857 19.3216 75.5512 22.5812 77.2539C22.5934 77.2582 22.6015 77.2625 22.6096 77.2667C22.8616 77.399 23.1055 77.5228 23.3127 77.6209C23.711 77.8215 24.0646 77.9922 24.4182 78.1544C24.5076 78.1928 24.5727 78.2269 24.6418 78.2568C25.4099 78.6067 26.178 78.9268 26.9096 79.2127C27.1006 79.2852 27.2754 79.3535 27.4461 79.4175C28.9946 79.9894 30.5512 80.4545 32.0712 80.8087C32.7134 80.9538 33.3555 81.0861 33.9814 81.1971C34.0586 81.2141 34.1399 81.2227 34.2009 81.2355C35.1479 81.3934 36.0867 81.5129 37.0255 81.5939C42.6992 82.0591 48.3404 81.1202 54.0019 78.7731C55.9812 77.9538 57.8467 77.0107 59.5944 75.9438C62.4475 74.2069 64.9958 72.1458 67.2433 69.756C67.5806 69.3975 67.9098 69.0305 68.239 68.655C68.9218 67.8655 69.5802 67.0376 70.2102 66.1713C71.84 63.9394 73.2625 61.4685 74.4858 58.7715C74.6971 58.3021 74.9044 57.8241 75.1076 57.3334C75.1279 57.2822 75.1523 57.2267 75.1727 57.1755C75.1848 57.1499 75.193 57.1243 75.2052 57.0987C75.4328 56.5354 75.6482 55.9678 75.8636 55.3917C76.8105 52.7757 77.5015 50.1299 77.9242 47.4499C77.9811 47.0744 78.038 46.669 78.0949 46.2636C78.168 45.6362 78.2371 44.9961 78.2859 44.3347C78.294 44.2109 78.3062 44.0658 78.3184 43.9122C78.4241 42.2649 78.4241 40.6092 78.3265 38.9278C78.2899 38.3815 78.2452 37.8268 78.1883 37.2549C78.1721 37.097 78.1518 36.9263 78.1314 36.7556C77.9689 35.3559 77.7291 33.9519 77.4039 32.5138C76.9609 30.5379 76.3594 28.5237 75.5994 26.5052C73.36 20.5521 70.1533 15.5762 65.959 11.5605C64.4349 10.101 62.7604 8.76103 60.9559 7.55334C59.8301 6.79373 58.6555 6.09387 57.3997 5.42814Z" fill="#333333"/>
<path d="M72.8439 20.5264L67.1051 14.5007L6.90942 47.5011L39.4926 81.7134C44.3656 81.7518 49.1736 80.7745 54.002 78.7731C55.9813 77.9537 57.8468 77.0106 59.5944 75.9437C62.4475 74.2069 64.9958 72.1457 67.2433 69.7559C67.5807 69.3974 67.9099 69.0304 68.2391 68.6549C68.9219 67.8654 69.5803 67.0375 70.2102 66.1712C71.84 63.9394 73.2625 61.4685 74.4858 58.7714C74.6972 58.302 74.9044 57.8241 75.1077 57.3333C75.128 57.2821 75.1524 57.2266 75.1727 57.1754C75.1849 57.1498 75.193 57.1242 75.2052 57.0986C75.4328 56.5353 75.6482 55.9677 75.8636 55.3916C76.8106 52.7757 77.5015 50.1298 77.9242 47.4499C77.9811 47.0743 78.038 46.6689 78.0949 46.2635C78.1681 45.6362 78.2371 44.9961 78.2859 44.3346C78.294 44.2108 78.3062 44.0658 78.3184 43.9121C78.4241 42.2649 78.4241 40.6091 78.3266 38.9277C78.29 38.3815 78.2453 37.8267 78.1884 37.2549C78.1721 37.097 78.1518 36.9263 78.1315 36.7556C77.9689 35.3558 77.7291 33.9519 77.404 32.5137C76.9542 30.5137 76.3527 28.5108 75.5994 26.5051C74.8069 24.4013 73.8925 22.4169 72.8439 20.5264Z" fill="black" fill-opacity="0.2"/>
<path d="M20.923 38.1596C20.6751 38.3901 20.5328 38.6717 20.5003 39.0088C20.4028 40.0074 20.354 41.1084 20.3581 42.3161C20.354 42.3375 20.3581 42.3631 20.354 42.3844L20.3581 42.5594C20.4678 48.2565 21.8659 53.0915 24.5361 57.0688C27.3852 61.3192 30.7991 63.4529 34.7699 63.4657C35.1547 63.4714 35.5353 63.4572 35.912 63.423C36.2371 63.3974 36.5053 63.2566 36.7329 63.0134C36.9524 62.7659 37.0662 62.4714 37.0784 62.1343L30.1489 41.3773C30.1489 41.1426 30.092 40.9079 29.97 40.686C29.8522 40.4683 29.6896 40.2891 29.4864 40.1568C29.275 40.0288 29.0515 39.9648 28.8158 39.9605L21.7887 37.831C21.4554 37.8225 21.1669 37.9334 20.923 38.1596Z" fill="#005D7D"/>
<path d="M66.9181 14.3386C66.5469 14.057 66.1595 13.7938 65.7558 13.5491C61.6143 10.9759 56.8428 11.0441 51.4455 13.7625C46.3936 16.2888 42.1749 20.5777 38.7975 26.6332L38.6959 26.8167C38.6837 26.8423 38.6675 26.8679 38.6553 26.8935C37.9603 28.1908 37.3832 29.407 36.9158 30.5422C36.7573 30.9263 36.741 31.3231 36.867 31.7285C36.993 32.134 37.2287 32.4412 37.5783 32.6503L52.6119 41.7656C52.8599 41.915 53.1322 41.9918 53.4248 41.9875C53.7134 41.9833 53.9857 41.8979 54.2336 41.74C54.4856 41.5821 54.6766 41.3688 54.8107 41.1084L67.3937 16.4809C67.5765 16.1139 67.6253 15.7255 67.5359 15.3159C67.4424 14.9062 67.2392 14.5819 66.9181 14.3386Z" fill="#3B99C8"/>
<path d="M62.2077 64.8014C62.5287 64.5581 62.7319 64.2338 62.8254 63.8241C62.9148 63.4144 62.8661 63.0261 62.6832 62.6591L43.5974 44.8595C43.4633 44.5992 43.2723 44.3858 43.0203 44.2279C42.7724 44.07 42.5001 43.9847 42.2115 43.9804C41.9189 43.9761 41.6466 44.0529 41.3987 44.2023L32.8678 46.4897C32.5183 46.6988 32.2826 47.006 32.1566 47.4114C32.0306 47.8168 32.0468 48.2137 32.2053 48.5978C32.6727 49.7329 33.2499 50.9492 33.9448 52.2465C33.957 52.2721 33.9733 52.2977 33.9855 52.3233L34.0871 52.5068C37.4645 58.5623 41.6832 62.8511 46.735 65.3775C52.1324 68.0959 56.9038 68.1641 61.0453 65.5909C61.4476 65.3476 61.8378 65.083 62.2077 64.8014Z" fill="#007BA4"/>
<mask id="mask0_113_300" style="mask-type:alpha" maskUnits="userSpaceOnUse" x="3" y="3" width="74" height="78">
<path d="M56.8125 7.52638C56.1328 7.16955 55.4179 6.81681 54.6836 6.48459C54.0117 6.17697 53.3437 5.89396 52.6601 5.63146C49.3711 4.33947 46.0781 3.55197 42.7812 3.28127C37.3593 2.82189 31.9258 3.72424 26.4609 5.9883C24.6289 6.75119 22.8945 7.62072 21.2578 8.6051C18.0312 10.5492 15.1953 12.924 12.7812 15.7172C10.0937 18.8125 7.89191 22.4369 6.17577 26.5904C4.59374 30.4172 3.60936 34.2563 3.21874 38.0461C3.18358 38.4112 3.15233 38.7516 3.12499 39.092C2.83593 42.8326 3.10936 46.5363 3.92577 50.2483C4.37108 52.2621 4.96092 54.2473 5.70311 56.2242C7.86717 61.9623 10.957 66.7571 14.9648 70.5879C17.4219 72.9381 20.2148 74.9233 23.3476 76.5598C23.3594 76.5639 23.3672 76.568 23.375 76.5721C23.6172 76.6992 23.8515 76.8182 24.0508 76.9125C24.4336 77.1053 24.7734 77.2694 25.1133 77.4252C25.1992 77.4621 25.2617 77.4949 25.3281 77.5237C26.0664 77.86 26.8047 78.1676 27.5078 78.4424C27.6914 78.5121 27.8594 78.5778 28.0234 78.6393C29.5117 79.1889 31.0078 79.636 32.4687 79.9764C33.0859 80.1158 33.7031 80.243 34.3047 80.3496C34.3789 80.366 34.457 80.3742 34.5156 80.3866C35.4258 80.5383 36.3281 80.6532 37.2304 80.7311C42.6836 81.1782 48.1054 80.2758 53.5468 78.0199C55.4492 77.2324 57.2422 76.326 58.9218 75.3006C61.664 73.6313 64.1133 71.6502 66.2734 69.3533C66.5976 69.0088 66.914 68.6561 67.2304 68.2951C67.8867 67.5363 68.5195 66.7407 69.125 65.908C70.6914 63.7629 72.0586 61.3881 73.2343 58.7959C73.4375 58.3447 73.6367 57.8854 73.832 57.4137C73.8515 57.3645 73.875 57.3112 73.8945 57.2619C73.9062 57.2373 73.914 57.2127 73.9258 57.1881C74.1445 56.6467 74.3515 56.1012 74.5586 55.5475C75.4687 53.0332 76.1328 50.4903 76.539 47.9145C76.5937 47.5535 76.6484 47.1639 76.7031 46.7742C76.7734 46.1713 76.8398 45.5561 76.8867 44.9203C76.8945 44.8014 76.9062 44.6619 76.9179 44.5143C77.0195 42.9311 77.0195 41.3397 76.9258 39.7237C76.8906 39.1987 76.8476 38.6654 76.7929 38.1158C76.7773 37.9641 76.7578 37.8 76.7382 37.636C76.582 36.2906 76.3515 34.9412 76.039 33.559C75.6132 31.66 75.0351 29.724 74.3046 27.784C72.1523 22.0623 69.0703 17.2799 65.039 13.4203C63.5742 12.0176 61.9648 10.7297 60.2304 9.56896C59.1484 8.83888 58.0195 8.16623 56.8125 7.52638Z" fill="white"/>
</mask>
<g mask="url(#mask0_113_300)">
<path d="M61.7119 26.1425C61.1998 25.784 60.5089 25.3445 59.635 24.8196C55.0384 22.7328 49.8849 21.6873 44.1665 21.6873C35.6234 21.6873 28.3321 24.0173 22.2886 28.6816C18.0496 31.9548 15.2981 35.7059 14.0341 39.935H12.9245C11.8028 39.935 10.8436 40.3532 10.0511 41.1853C9.25859 42.0175 8.86029 43.0246 8.86029 44.2024V46.0801C8.86029 47.0488 9.42116 47.9023 10.547 48.6406C29.6286 47.3305 42.5774 48.4272 49.3972 51.9265C56.217 55.4259 60.7486 58.3149 62.9962 60.598C67.0239 64.9893 70.1086 69.3805 72.2586 73.7717L80.1473 48.0773C78.9728 45.1455 76.8959 41.6547 73.925 37.6135C70.954 33.5679 68.3041 30.7343 65.9753 29.1127C63.6465 27.4867 62.224 26.4967 61.7119 26.1425Z" fill="#007BA4"/>
<path d="M12.9245 39.9349H14.0341C15.2981 35.7058 18.0496 31.9547 22.2886 28.6816C28.3321 24.0173 35.6234 21.6872 44.1665 21.6872C49.8849 21.6872 55.0384 22.7327 59.635 24.8195C54.2621 21.5933 48.0235 19.9802 40.9151 19.9802C32.372 19.9802 25.0807 22.3103 19.0372 26.9746C14.7982 30.2478 12.0467 33.9989 10.7827 38.2279H9.67314C8.55141 38.2279 7.59224 38.6461 6.79971 39.4783C6.00718 40.3104 5.60889 41.3176 5.60889 42.4954V44.3731C5.60889 45.5509 6.00718 46.558 6.79971 47.3902C7.59224 48.2223 8.83997 48.6363 10.547 48.6405H10.5449H10.547C9.42116 47.9023 8.86029 47.0488 8.86029 46.0801V44.2024C8.86029 43.0246 9.25859 42.0174 10.0511 41.1853C10.8436 40.3531 11.8028 39.9349 12.9245 39.9349Z" fill="#3B99C8"/>
<path d="M22.6787 37.9292C22.6787 38.5067 22.8724 38.9989 23.2599 39.4057C23.6501 39.8154 24.1215 40.0203 24.6702 40.0203C25.2189 40.0203 25.6903 39.8154 26.0764 39.4057C26.4666 39.0003 26.6617 38.5053 26.6617 37.9292C26.6617 37.3531 26.4666 36.8581 26.0764 36.4484C25.6903 36.043 25.2189 35.8381 24.6702 35.8381C24.1215 35.8381 23.6501 36.043 23.2599 36.4484C22.8738 36.8581 22.6787 37.3531 22.6787 37.9292Z" fill="white"/>
</g>
</svg>
