<svg width="80" height="84" viewBox="0 0 80 84" fill="none" xmlns="http://www.w3.org/2000/svg">
<path d="M40 78.75C39.0557 78.7503 38.1279 78.4896 37.31 77.994L28.75 72.6731C27.4725 71.9223 28.095 71.6572 28.5175 71.5023C29.8762 71.0616 31.1771 70.4443 32.39 69.6648C32.4916 69.6155 32.6034 69.5942 32.715 69.6029C32.8265 69.6117 32.9341 69.6501 33.0275 69.7147L39.605 73.8176C39.7275 73.8856 39.864 73.9212 40.0025 73.9212C40.1411 73.9212 40.2776 73.8856 40.4 73.8176L66.05 58.2723C66.1701 58.1968 66.2694 58.0899 66.3382 57.9619C66.407 57.834 66.4429 57.6895 66.4425 57.5426V26.4468C66.4426 26.2976 66.4061 26.1508 66.3365 26.0207C66.2669 25.8906 66.1665 25.7815 66.045 25.704L40.395 10.1718C40.2741 10.1003 40.1376 10.0627 39.9988 10.0627C39.86 10.0627 39.7235 10.1003 39.6025 10.1718L13.9675 25.7092C13.8453 25.7851 13.7437 25.8929 13.6728 26.0222C13.6018 26.1514 13.5639 26.2977 13.5625 26.4468V57.5295C13.5629 57.676 13.6003 57.8199 13.6711 57.9463C13.7418 58.0727 13.8433 58.177 13.965 58.2487L21 62.5117C24.8125 64.512 27.1475 62.1547 27.1475 59.787V29.0981C27.1475 28.8892 27.2266 28.6889 27.3672 28.5412C27.5079 28.3935 27.6986 28.3106 27.8975 28.3106H31.1475C31.3465 28.3106 31.5372 28.3935 31.6779 28.5412C31.8185 28.6889 31.8975 28.8892 31.8975 29.0981V59.7896C31.8975 65.1315 29.1275 68.1896 24.3025 68.1896C22.221 68.2277 20.1721 67.6432 18.395 66.5043L11.6525 62.4435C10.834 61.943 10.1548 61.2258 9.68281 60.3635C9.21079 59.5012 8.96243 58.524 8.96254 57.5295V26.4468C8.96011 25.4507 9.20741 24.4715 9.6796 23.6075C10.1518 22.7436 10.8322 22.0253 11.6525 21.525L37.305 5.97446C38.1314 5.49977 39.0581 5.25098 40 5.25098C40.9419 5.25098 41.8687 5.49977 42.695 5.97446L68.345 21.525C69.1635 22.0245 69.8428 22.7406 70.3153 23.602C70.7877 24.4633 71.0368 25.4397 71.0375 26.4337V57.5295C71.0361 58.524 70.7869 59.5009 70.3145 60.3629C69.8422 61.225 69.1632 61.9423 68.345 62.4435L42.695 77.994C41.8756 78.4904 40.9461 78.7511 40 78.75Z" fill="#83CD29"/>
<path d="M35.135 47.1266C35.135 46.9177 35.214 46.7174 35.3547 46.5697C35.4953 46.422 35.6861 46.3391 35.885 46.3391H39.2025C39.3798 46.3397 39.5511 46.4062 39.6861 46.5268C39.8211 46.6474 39.9111 46.8143 39.94 46.9979C40.44 50.5443 41.94 52.3319 48.7225 52.3319C54.125 52.3319 56.4275 51.0483 56.4275 48.0374C56.4275 46.3023 55.775 45.0134 47.3775 44.1498C40.3575 43.4201 36.0175 41.7873 36.0175 35.8968C36.0175 30.4631 40.38 27.2212 47.6925 27.2212C55.91 27.2212 59.9775 30.2163 60.4925 36.6423C60.5004 36.7496 60.4872 36.8574 60.4539 36.9592C60.4205 37.0609 60.3676 37.1544 60.2985 37.2338C60.2294 37.3133 60.1455 37.377 60.052 37.4211C59.9586 37.4652 59.8575 37.4887 59.755 37.4902H56.415C56.2475 37.4877 56.0855 37.4264 55.955 37.316C55.8245 37.2057 55.733 37.0526 55.695 36.8812C54.8975 33.1511 52.945 31.9593 47.695 31.9593C41.795 31.9593 41.11 34.1171 41.11 35.7341C41.11 37.6923 41.92 38.2646 49.885 39.3697C57.7675 40.4643 61.5125 42.0131 61.5125 47.8301C61.5125 53.6996 56.8525 57.0596 48.725 57.0596C37.4875 57.0753 35.135 51.6652 35.135 47.1266Z" fill="#83CD29"/>
</svg>
