<svg width="80" height="84" viewBox="0 0 80 84" fill="none" xmlns="http://www.w3.org/2000/svg">
<path d="M33.2745 12.5899C33.2745 15.3055 31.1755 17.5094 28.5893 17.5094C26.003 17.5094 23.9041 15.3055 23.9041 12.5899C23.9041 9.87435 26.003 7.67041 28.5893 7.67041C31.1755 7.67041 33.2745 9.87435 33.2745 12.5899Z" fill="#F9F9F9"/>
<path d="M39.4965 2.80334C36.4105 2.81646 33.4556 3.09852 30.8569 3.57079C23.2075 4.98104 21.8144 7.91306 21.8144 13.3344V20.4971H39.8963V22.8815H15.0302C9.77021 22.8815 5.17243 26.1611 3.7325 32.399C2.07393 39.5487 1.98647 44.0189 3.7325 51.4736C5.01314 57.0326 8.07728 60.9912 13.3341 60.9912H18.6534V51.4867C18.6534 45.298 23.8259 39.8668 29.9636 39.8668H48.8919C53.9176 39.8668 58.6778 35.5606 58.6778 30.323V13.3737C58.6778 8.28694 53.8083 4.4563 48.8919 3.61014C45.7934 3.07228 42.5731 2.82958 39.4902 2.8427L39.4965 2.80334ZM29.7168 8.55588C31.5847 8.55588 33.1089 10.1695 33.1089 12.157C33.1089 14.1313 31.5847 15.7187 29.7168 15.7187C27.8365 15.7187 26.3122 14.1313 26.3122 12.157C26.3122 10.1728 27.824 8.55588 29.7168 8.55588Z" fill="#4586B9"/>
<path d="M55.1514 71.6239C55.1514 74.3394 53.0524 76.5434 50.4662 76.5434C47.8674 76.5434 45.7684 74.3394 45.7684 71.6239C45.7684 68.9083 47.8674 66.7043 50.4662 66.7043C53.0524 66.7043 55.1514 68.9083 55.1514 71.6239Z" fill="#F9F9F9"/>
<path d="M61.2516 22.8749V31.2151C61.2516 37.6727 55.9698 42.3495 49.954 42.3495H30.1136C25.1722 42.3495 21.071 47.5248 21.071 52.6641V70.5481C21.071 75.6348 25.3284 78.6193 30.1136 80.0788C35.8358 81.8203 42.0703 82.1548 48.917 80.0788C53.4679 78.7079 57.9595 75.953 57.9595 70.5481V63.3853H39.9026V61.001H67.0145C72.2619 61.001 74.2266 57.1835 76.057 51.4834C77.9467 45.603 77.8499 39.939 76.057 32.4089C74.7514 26.9646 72.2744 22.8913 67.0145 22.8913L61.2516 22.8749ZM50.0664 68.1671C51.9343 68.1671 53.4585 69.7544 53.4585 71.7288C53.4585 73.7031 51.9468 75.3298 50.0664 75.3298C48.1861 75.3298 46.6618 73.7031 46.6618 71.7288C46.6618 69.7544 48.1861 68.1671 50.0664 68.1671Z" fill="#FFE634"/>
</svg>
