<svg width="80" height="84" viewBox="0 0 80 84" fill="none" xmlns="http://www.w3.org/2000/svg">
<path d="M40 49.4813C43.935 49.4813 47.125 46.1318 47.125 42C47.125 37.8683 43.935 34.5188 40 34.5188C36.065 34.5188 32.875 37.8683 32.875 42C32.875 46.1318 36.065 49.4813 40 49.4813Z" fill="#61DAFB"/>
<path d="M67.0625 29.6625C65.6875 29.1375 64.25 28.6125 62.75 28.1532C63.125 26.5782 63.4375 25.0032 63.6875 23.4938C65 14.8313 63.5625 8.72817 59.5625 6.36567C58.375 5.6438 57.0625 5.31567 55.5625 5.31567C51.1875 5.31567 45.625 8.72817 40 14.4375C34.375 8.72817 28.8125 5.31567 24.4375 5.31567C22.9375 5.31567 21.625 5.6438 20.4375 6.36567C16.4375 8.7938 15 14.8969 16.3125 23.4938C16.5625 25.0032 16.875 26.5782 17.25 28.1532C15.75 28.6125 14.3125 29.0719 12.9375 29.6625C5.125 32.8125 0.875 37.1438 0.875 42C0.875 46.8563 5.1875 51.1875 12.9375 54.3375C14.3125 54.8625 15.75 55.3875 17.25 55.8469C16.875 57.4219 16.5625 58.9969 16.3125 60.5063C15 69.1688 16.4375 75.2719 20.4375 77.6344C21.625 78.3563 22.9375 78.6844 24.4375 78.6844C28.875 78.6844 34.4375 75.2719 40 69.5625C45.625 75.2719 51.1875 78.6844 55.5625 78.6844C57.0625 78.6844 58.375 78.3563 59.5625 77.6344C63.5625 75.2063 65 69.1032 63.6875 60.5063C63.4375 58.9969 63.125 57.4219 62.75 55.8469C64.25 55.3875 65.6875 54.9282 67.0625 54.3375C74.875 51.1875 79.125 46.8563 79.125 42C79.125 37.1438 74.875 32.8125 67.0625 29.6625ZM57.8125 9.64692C60.375 11.2219 61.25 16.0782 60.1875 22.9688C60 24.3469 59.6875 25.7907 59.3125 27.3C56.0625 26.5125 52.625 25.9875 49 25.6594C46.875 22.5094 44.6875 19.6875 42.5 17.1282C47.125 12.3375 51.8125 9.0563 55.625 9.0563C56.4375 9.0563 57.1875 9.25317 57.8125 9.64692ZM50.8125 48.5625C49.6875 50.6625 48.375 52.7625 47 54.8625C44.6875 55.0594 42.375 55.125 40 55.125C37.5625 55.125 35.25 55.0594 33 54.8625C31.625 52.7625 30.375 50.6625 29.25 48.5625C28.0625 46.3969 26.9375 44.1657 25.9375 42C26.9375 39.8344 28.0625 37.6032 29.25 35.4375C30.375 33.3375 31.6875 31.2375 33.0625 29.1375C35.375 28.9407 37.6875 28.875 40.0625 28.875C42.5 28.875 44.8125 28.9407 47.0625 29.1375C48.4375 31.2375 49.6875 33.3375 50.8125 35.4375C52 37.6032 53.125 39.8344 54.125 42C53.0625 44.1657 52 46.3313 50.8125 48.5625ZM56 46.3969C56.9375 48.6938 57.6875 50.925 58.375 53.1563C56.25 53.6813 54 54.075 51.625 54.4032C52.375 53.1563 53.1875 51.8438 53.875 50.4657C54.625 49.0875 55.3125 47.7094 56 46.3969ZM40 64.1813C38.5 62.475 37.0625 60.6375 35.6875 58.7344C37.125 58.8 38.5625 58.8657 40 58.8657C41.4375 58.8657 42.875 58.8 44.3125 58.7344C42.9375 60.6375 41.5 62.475 40 64.1813ZM28.375 54.3375C26 54.0094 23.75 53.6157 21.625 53.0907C22.3125 50.925 23.0625 48.6282 24 46.3313C24.6875 47.6438 25.375 49.0219 26.125 50.3344C26.875 51.7782 27.625 53.025 28.375 54.3375ZM24 37.6032C23.0625 35.3063 22.3125 33.075 21.625 30.8438C23.75 30.3188 26 29.925 28.375 29.5969C27.625 30.8438 26.8125 32.1563 26.125 33.5344C25.375 34.9125 24.6875 36.2907 24 37.6032ZM40 19.8188C41.5 21.525 42.9375 23.3625 44.3125 25.2657C42.875 25.2 41.4375 25.1344 40 25.1344C38.5625 25.1344 37.125 25.2 35.6875 25.2657C37.0625 23.3625 38.5 21.525 40 19.8188ZM53.875 33.6L51.625 29.6625C54 29.9907 56.25 30.3844 58.375 30.9094C57.6875 33.075 56.9375 35.3719 56 37.6688C55.3125 36.2907 54.625 34.9125 53.875 33.6ZM19.8125 22.9688C18.75 16.0782 19.625 11.2219 22.1875 9.64692C22.8125 9.25317 23.5625 9.0563 24.375 9.0563C28.125 9.0563 32.8125 12.2719 37.5 17.1282C35.3125 19.6219 33.125 22.5094 31 25.6594C27.375 25.9875 23.9375 26.5782 20.6875 27.3C20.3125 25.7907 20.0625 24.3469 19.8125 22.9688ZM4.375 42C4.375 38.9157 7.9375 35.6344 14.1875 33.2063C15.4375 32.6813 16.8125 32.2219 18.1875 31.8282C19.1875 35.1094 20.4375 38.5875 21.9375 42.0657C20.4375 45.5438 19.125 48.9563 18.1875 52.2375C9.5625 49.6125 4.375 45.675 4.375 42ZM22.1875 74.3532C19.625 72.7782 18.75 67.9219 19.8125 61.0313C20 59.6532 20.3125 58.2094 20.6875 56.7C23.9375 57.4875 27.375 58.0125 31 58.3407C33.125 61.4907 35.3125 64.3125 37.5 66.8719C32.875 71.6625 28.1875 74.9438 24.375 74.9438C23.5625 74.9438 22.8125 74.7469 22.1875 74.3532ZM60.1875 61.0313C61.25 67.9219 60.375 72.7782 57.8125 74.3532C57.1875 74.7469 56.4375 74.9438 55.625 74.9438C51.875 74.9438 47.1875 71.7282 42.5 66.8719C44.6875 64.3782 46.875 61.4907 49 58.3407C52.625 58.0125 56.0625 57.4219 59.3125 56.7C59.6875 58.2094 59.9375 59.6532 60.1875 61.0313ZM65.8125 50.7938C64.5625 51.3188 63.1875 51.7782 61.8125 52.1719C60.8125 48.8907 59.5625 45.4125 58.0625 41.9344C59.5625 38.4563 60.875 35.0438 61.8125 31.7625C70.4375 34.3875 75.625 38.325 75.625 42C75.625 45.0844 72 48.3657 65.8125 50.7938Z" fill="#61DAFB"/>
</svg>
