<svg width="150" height="150" viewBox="0 0 150 150" fill="none" xmlns="http://www.w3.org/2000/svg">
<g clip-path="url(#clip0_9_47)">
<path d="M16.6481 1.17188C8.07664 1.17188 1.17188 8.07664 1.17188 16.6481V135.696C1.17188 144.267 8.07664 151.172 16.6481 151.172H135.696C144.267 151.172 151.172 144.267 151.172 135.696V16.6481C151.172 8.07664 144.267 1.17188 135.696 1.17188H16.6481ZM16.6481 8.31473H135.696C140.339 8.31473 144.029 12.0052 144.029 16.6481V34.5052H8.31473V16.6481C8.31473 12.0052 12.0052 8.31473 16.6481 8.31473ZM21.41 17.8385C19.3862 17.8385 17.8385 19.3862 17.8385 21.41C17.8385 23.4338 19.3862 24.9814 21.41 24.9814H26.1719C28.1957 24.9814 29.7433 23.4338 29.7433 21.41C29.7433 19.3862 28.1957 17.8385 26.1719 17.8385H21.41ZM40.4576 17.8385C38.4338 17.8385 36.8862 19.3862 36.8862 21.41C36.8862 23.4338 38.4338 24.9814 40.4576 24.9814H45.2195C47.2433 24.9814 48.7909 23.4338 48.7909 21.41C48.7909 19.3862 47.2433 17.8385 45.2195 17.8385H40.4576ZM8.31473 41.6481H144.029V135.696C144.029 140.339 140.339 144.029 135.696 144.029H16.6481C12.0052 144.029 8.31473 140.339 8.31473 135.696V41.6481ZM52.3624 58.3147C50.3385 58.3147 48.7909 59.8624 48.7909 61.8862V123.791C48.7909 125.815 50.3385 127.362 52.3624 127.362C54.3862 127.362 55.9338 125.815 55.9338 123.791V96.41H123.791C125.815 96.41 127.362 94.8624 127.362 92.8385C127.362 90.8147 125.815 89.2671 123.791 89.2671H55.9338V61.8862C55.9338 59.8624 54.3862 58.3147 52.3624 58.3147Z" fill="#AA1B39"/>
</g>
<defs>
<clipPath id="clip0_9_47">
<rect width="150" height="150" fill="white"/>
</clipPath>
</defs>
</svg>
